<?xml version="1.0" encoding="utf-8"?>
<!-- Generator: Adobe Illustrator 15.0.0, SVG Export Plug-In . SVG Version: 6.00 Build 0)  -->
<!DOCTYPE svg PUBLIC "-//W3C//DTD SVG 1.1//EN" "http://www.w3.org/Graphics/SVG/1.1/DTD/svg11.dtd">
<svg version="1.1" id="Ebene_1" xmlns="http://www.w3.org/2000/svg" xmlns:xlink="http://www.w3.org/1999/xlink" x="0px" y="0px"
	 width="369px" height="75px" viewBox="236.445 262.14 369 75" enable-background="new 236.445 262.14 369 75" xml:space="preserve"
	>
<g>
	<path fill="#767166" d="M240.101,318.389h8.399v-24.1c0-0.899,0.2-2.199,0.3-2.899c0.9-3.2,2.7-4.7,4.9-4.7
		c3.5,0,4.399,3.8,4.399,7.9v23.799h8.4v-24.1c0-9.6-3.4-14.599-9.4-14.599c-2,0-3.699,0.5-5.1,1.399c-1.3,0.8-2.399,1.9-3.3,3.2
		h-0.2v-20h-8.399V318.389"/>
</g>
<rect x="273.199" y="280.291" fill="#767166" width="8.4" height="38.099"/>
<g>
	<path fill="#767166" d="M277.299,275.191c2.7,0,4.5-2,4.5-4.9c0-3-1.899-4.899-4.5-4.899c-2.399,0-4.499,1.899-4.499,4.899
		C272.8,273.191,274.8,275.191,277.299,275.191L277.299,275.191z"/>
</g>
<rect x="288.499" y="264.191" fill="#767166" width="8.399" height="54.099"/>
<rect x="304.899" y="264.191" fill="#767166" width="8.399" height="54.099"/>
<rect x="320.598" y="280.291" fill="#767166" width="8.4" height="38.099"/>
<path fill="#767166" d="M324.598,275.191c2.7,0,4.5-2,4.5-4.9c0-3-1.9-4.899-4.5-4.899c-2.399,0-4.5,1.899-4.5,4.899
	C320.198,273.191,322.098,275.191,324.598,275.191L324.598,275.191z"/>
<path fill="#767166" fill-rule="evenodd" clip-rule="evenodd" d="M360.697,292.19c0-5.199,0.2-8.8,0.4-11.999h-7.399l-0.5,4.1h-0.2c-1.3-2.6-3.5-4.7-7-4.7
	c-6.399,0-12.399,6.7-12.399,20c0,9.999,3.8,18.599,11.6,18.599c3.1,0,5.699-1.499,7-4.1h0.199v3c0,7.1-2.399,10.3-7.399,10.3
	c-3.1,0-5.5-0.8-7.2-1.6l-1.699,6.499c2.399,1.101,5.6,1.801,9.1,1.801c4.899,0,8.8-1.5,11.3-4.101
	c2.8-2.899,4.199-6.999,4.199-15.999V292.19z M352.397,304.39c0,1.1-0.1,2.199-0.5,3.199c-0.899,3.2-2.699,4-4.3,4c-3.199,0-5.699-4-5.699-12.299
	c0-7.2,1.899-12.601,5.899-12.601c2.5,0,3.7,2.3,4.2,4.3c0.2,0.801,0.399,1.801,0.399,2.8V304.39z"/>
<path fill="#767166" d="M376.697,318.889c-5.101,0-8.6-4.3-8.6-10.499c0-8,5.6-13.101,14.699-13.5v-0.7c0-7.1-1.5-9.6-5.6-9.6
	c-1.601,0-3.4,0.6-4.7,1.6l-0.7,0.5l-1.399-3.699l0.3-0.301c1.3-1.1,4.2-2.3,7.1-2.3c4.3,0,9.399,2.101,9.399,12.1v17
	c0,2.6,0,5.8,0.301,8l0.1,0.699h-4.3l-0.2-2.8C381.596,317.69,379.296,318.889,376.697,318.889z M567.19,318.79
	c-7.8,0-12.399-7.1-12.399-18.899s4.5-19.399,11.399-19.399c7.2,0,9.699,8.199,9.699,15.799v2.801H559.39
	c0.101,10.399,2.9,15.6,8.399,15.6c2,0,3.801-0.5,5-1.301l0.7-0.5l1.1,3.801l-0.399,0.3C572.589,318.09,569.99,318.79,567.19,318.79
	z M548.191,318.79c-2.3,0-4.2-0.8-5.3-2.4c-1.2-1.699-1.7-3.999-1.7-8.6v-22.699h-4.5v-4.1h4.5v-5.7l4.5-2.6v8.399h6.8v4.1h-6.8
	v23.8c0,5.1,1.7,5.7,3.2,5.7c1.1,0,1.699-0.101,1.999-0.2l0.7-0.2l0.6,3.7l-0.399,0.199
	C550.691,318.59,549.79,318.79,548.191,318.79z M501.491,318.79c-7.799,0-12.399-7.1-12.399-18.899s4.5-19.399,11.399-19.399
	c7.2,0,9.7,8.199,9.7,15.799v2.801h-16.499c0.1,10.399,2.899,15.6,8.399,15.6c2,0,3.8-0.5,5-1.301l0.699-0.5l1.101,3.801l-0.4,0.3
	C506.892,318.09,504.292,318.79,501.491,318.79z M482.492,318.79c-2.3,0-4.2-0.8-5.3-2.4c-1.2-1.699-1.7-3.999-1.7-8.6v-22.699h-4.5
	v-4.1h4.5v-5.7l4.5-2.6v8.399h6.8v4.1h-6.8v23.8c0,5.1,1.7,5.7,3.2,5.7c1.1,0,1.7-0.101,2-0.2l0.7-0.2l0.6,3.7l-0.4,0.199
	C485.092,318.59,484.092,318.79,482.492,318.79z M422.095,318.79c-7.8,0-12.6-7.3-12.6-18.999c0-9.301,4.199-19.3,13.499-19.3
	c1.9,0,4.1,0.6,5.3,1.399l0.4,0.3l-1.5,4.101l-0.7-0.4c-0.7-0.399-2.1-1.1-4.1-1.1c-5.7,0-8.3,7.699-8.3,15.3
	c0,9.199,3.2,14.6,8.6,14.6c1.5,0,2.8-0.301,4.2-1.101l0.699-0.399l1.101,3.699l-0.4,0.301
	C426.695,318.189,424.494,318.79,422.095,318.79z M601.489,318.29h-4.5v-24.3c0-6.6-1.6-9.499-5.3-9.499
	c-2.899,0-5.199,2.699-5.899,6.899c-0.101,0.9-0.101,2-0.101,3.1v23.8h-4.499v-28.3c0-2.899-0.101-4.399-0.2-5.899
	c0-0.8-0.101-1.5-0.101-2.399v-0.7h4.2l0.1,3.1c1.7-2.3,4.4-3.7,7.5-3.7c2.7,0,8.8,1.2,8.8,12.3V318.29z M535.891,318.29h-5.2
	l-9.199-17.699l-1.5,2.399v15.3h-4.5v-53.198h4.5v31.799c0-0.101,0.1-0.2,0.1-0.3c0.3-0.5,0.5-1,0.8-1.4l8.9-14.199h5.1
	l-10.399,15.799L535.891,318.29z M465.393,318.29h-4.5v-37.299h4.5V318.29z M453.293,318.29h-4.5v-24.699c0-6-1.699-9.1-4.999-9.1
	c-3,0-5.2,2.399-6.101,6.699c-0.1,0.8-0.1,1.7-0.1,2.6v24.6h-4.6v-53.198h4.5v18.6c0.6-0.8,1.399-1.4,2.1-1.9
	c1.3-0.8,2.6-1.399,5.1-1.399c4.2,0,8.6,3.199,8.6,11.999V318.29L453.293,318.29z M400.096,318.29h-4.5v-28.3
	c0-1.8-0.101-3.899-0.2-5.699c0-0.9-0.101-1.8-0.101-2.601v-0.699h4.4l0.1,4c1.5-2.5,4.3-4.601,7.4-4.601h1.3v4.8h-1.3
	c-4.2,0-6.7,4.2-7,8.4c-0.1,1-0.1,2-0.1,3V318.29L400.096,318.29z M382.796,298.99c-6.6,0.2-10,3.3-10,9.2c0,4.899,2.3,6.6,4.4,6.6
	c2.8,0,4.899-2.3,5.499-6.3c0.101-0.8,0.101-1.6,0.101-2.2V298.99z M559.49,295.091h11.6c0-5.3-1.5-7.9-2.7-9.1
	c-0.8-0.9-1.8-1.301-2.8-1.301C562.09,284.591,559.99,289.89,559.49,295.091z M493.792,295.091h11.6c0-5.3-1.5-7.9-2.7-9.1
	c-0.8-0.9-1.8-1.301-2.8-1.301C496.392,284.591,494.292,289.89,493.792,295.091z M463.093,275.89L463.093,275.89
	c-1.8,0-3.1-1.399-3.1-3.399s1.3-3.399,3.1-3.399c1.9,0,3.1,1.3,3.1,3.399S464.993,275.89,463.093,275.89z"/>
</svg>
